<?xml version="1.0" encoding="UTF-8" standalone="no"?>
<!-- Created with Inkscape (http://www.inkscape.org/) -->

<svg
   width="1620mm"
   height="2160mm"
   viewBox="0 0 1620 2160"
   version="1.1"
   id="svg12049"
   inkscape:version="1.2.1 (9c6d41e4, 2022-07-14)"
   sodipodi:docname="GERMIS-cover-page.svg"
   xml:space="preserve"
   xmlns:inkscape="http://www.inkscape.org/namespaces/inkscape"
   xmlns:sodipodi="http://sodipodi.sourceforge.net/DTD/sodipodi-0.dtd"
   xmlns="http://www.w3.org/2000/svg"
   xmlns:svg="http://www.w3.org/2000/svg"><sodipodi:namedview
     id="namedview12051"
     pagecolor="#ffffff"
     bordercolor="#666666"
     borderopacity="1.0"
     inkscape:showpageshadow="2"
     inkscape:pageopacity="1"
     inkscape:pagecheckerboard="0"
     inkscape:deskcolor="#d1d1d1"
     inkscape:document-units="mm"
     showgrid="false"
     inkscape:zoom="0.10228106"
     inkscape:cx="3060.1952"
     inkscape:cy="4081.8898"
     inkscape:window-width="1551"
     inkscape:window-height="1029"
     inkscape:window-x="832"
     inkscape:window-y="164"
     inkscape:window-maximized="0"
     inkscape:current-layer="layer8" /><defs
     id="defs12046" /><g
     inkscape:label="Layer 1"
     inkscape:groupmode="layer"
     id="layer1" /><g
     inkscape:groupmode="layer"
     id="layer8"
     inkscape:label="Background"><g
       id="germis"
       fill="#000000"
       transform="matrix(2.4071679,0,0,2.4071679,147.77447,240.55699)"><path
         id="g"
         d="m 402.44862,-26.28 v 13.824 c -2.44799,1.152 -4.96799,1.656 -7.704,1.656 -2.808,0 -5.25599,-0.576 -7.416,-1.8 -2.15999,-1.224 -3.888,-2.952 -5.03999,-5.112 -1.22401,-2.16 -1.8,-4.68 -1.8,-7.488 0,-4.32 1.29599,-7.848 3.95999,-10.44 2.592,-2.592 6.12,-3.96 10.44,-3.96 4.752,0 8.784,1.872 12.24,5.616 l 9.072,-8.208 c -2.51999,-2.952 -5.61599,-5.256 -9.36,-6.84 -3.74399,-1.584 -7.992,-2.376 -12.67199,-2.376 -5.40001,0 -10.22401,1.152 -14.47201,3.384 -4.32,2.232 -7.632,5.328 -10.008,9.288 -2.44799,4.032 -3.6,8.496 -3.6,13.536 0,5.04 1.15201,9.576 3.6,13.536 2.376,4.032 5.688,7.128 9.936,9.36 4.17601,2.232 8.928,3.312 14.256,3.312 3.744,0 7.488,-0.504 11.232,-1.656 3.744,-1.08 7.05601,-2.664 9.93601,-4.752 v -20.88 z"
         stroke-width="0"
         stroke="#000000"
         fill="#c10000"
         transform="matrix(1.77,0,0,1.77,-637.97686,96.99216)" /><path
         id="e"
         d="m 464.04687,-50.4 h -39.95999 v 11.016 h 39.95999 z m 0,19.512 h -39.95999 v 10.656 h 39.95999 z m -39.95999,19.872 V 0 h 39.95999 v -11.016 z"
         transform="matrix(1.67,0,0,1.67,-589.22509,94.168)" /><path
         id="r"
         d="m 508.02987,-15.84 c 3.096,-1.512 5.54401,-3.6 7.272,-6.336 1.728,-2.736 2.592,-5.904 2.592,-9.576 0,-3.744 -0.93599,-7.056 -2.736,-9.864 -1.87199,-2.808 -4.464,-4.968 -7.776,-6.48 -3.38399,-1.512 -7.344,-2.304 -11.88,-2.304 h -23.03999 v 11.232 h 22.17599 c 2.88,0 5.112,0.648 6.62401,1.944 1.43999,1.296 2.23199,3.168 2.23199,5.472 0,2.376 -0.792,4.176 -2.23199,5.472 -1.51201,1.296 -3.74401,1.872 -6.62401,1.872 H 472.46188 V 0 h 14.25599 v -13.392 h 7.776 L 503.63787,0 h 15.26401 z"
         transform="matrix(1.67,0,0,1.67,-581.01134,94.168)" /><path
         id="m"
         d="m 584.22275,-31.176 -13.032,23.328 0.072,7.848 h 13.104 z M 525.75875,0 h 13.176 v -6.984 l -13.176,-23.544 z m 46.728,-50.4 -17.28,29.088 -17.712,-29.088 h -11.736 l 13.176,24.408 12.888,21.024 h 6.336 l 12.96,-21.744 12.744,-23.688 z"
         transform="matrix(1.67,0,0,1.67,-573.01711,94.168)" /><path
         id="i"
         d="M 594.38375,-50.4 V 0 h 14.256 v -50.4 z"
         transform="matrix(1.67,0,0,1.67,-566.62086,94.168)" /><path
         id="s"
         d="m 624.6845,-0.504 c 3.816,1.008 7.776,1.512 11.88,1.512 4.752,0 8.856,-0.72 12.24,-2.16 3.312,-1.44 5.832,-3.456 7.56,-5.904 1.656,-2.448 2.52,-5.184 2.52,-8.208 0,-3.456 -0.936,-6.264 -2.808,-8.28 -1.872,-2.016 -4.032,-3.528 -6.552,-4.464 -2.52,-0.936 -5.688,-1.8 -9.504,-2.664 -3.456,-0.72 -5.904,-1.368 -7.416,-2.088 -1.584,-0.648 -2.304,-1.656 -2.304,-3.024 0,-1.296 0.648,-2.376 1.944,-3.24 1.296,-0.864 3.312,-1.296 6.192,-1.296 4.464,0 9.144,1.296 13.968,3.888 l 4.392,-10.584 c -2.448,-1.44 -5.328,-2.52 -8.496,-3.24 -3.24,-0.72 -6.48,-1.152 -9.792,-1.152 -4.896,0 -9,0.72 -12.312,2.16 -3.312,1.44 -5.832,3.456 -7.488,5.904 -1.728,2.448 -2.52,5.256 -2.52,8.28 0,3.528 0.864,6.336 2.736,8.352 1.8,2.088 3.96,3.6 6.552,4.536 2.52,0.936 5.688,1.8 9.504,2.592 3.456,0.792 5.904,1.512 7.488,2.232 1.584,0.72 2.376,1.728 2.376,3.168 0,2.736 -2.736,4.104 -8.208,4.104 -2.88,0 -5.832,-0.432 -8.784,-1.368 -3.024,-0.864 -5.616,-2.088 -7.848,-3.6 l -4.68,10.512 c 2.376,1.728 5.472,3.024 9.36,4.032 z"
         transform="matrix(1.67,0,0,1.67,-558.59191,95.85136)" /><text
         id="subtitle"
         style="font-style:normal;font-weight:normal;font-size:32px;line-height:1;font-family:Montserrat;letter-spacing:15px;text-anchor:middle"
         x="600"
         transform="matrix(0.25,0,0,0.25,126,123)">CLOUD ARCHITECTURE / PLATFORM ENGINEERING / DEVELOPMENT</text><g
         id="contact"
         style="font-style:normal;font-weight:normal;font-size:32px;line-height:1;font-family:Montserrat;letter-spacing:15px;text-anchor:middle"
         transform="matrix(0.35,0,0,0.35,50,92)"
         fill-opacity="0.4"><text
           id="email"
           x="1140"
           transform="matrix(0.6,0,0,0.6,-35,190)">VERBINDINGSWEG 4, 3770 VAL-MEER (RIEMST) - INFO@GERMIS.BE - 0479/707308</text></g></g><rect
       style="fill:#ffffff;stroke:#000000;stroke-width:1;stroke-linejoin:bevel;stroke-dasharray:none;stroke-opacity:1"
       id="rect12966"
       width="1164.0717"
       height="540.64667"
       x="227.96417"
       y="1250.5" /></g></svg>
