<?xml version="1.0" encoding="UTF-8" standalone="no"?>
<!-- Created with Inkscape (http://www.inkscape.org/) -->

<svg
   width="1620"
   height="2160"
   viewBox="0 0 440.27386 587.03181"
   version="1.1"
   id="svg817"
   inkscape:version="1.2.1 (9c6d41e4, 2022-07-14)"
   sodipodi:docname="suspended.svg"
   xml:space="preserve"
   inkscape:export-filename="rebooting.png"
   inkscape:export-xdpi="96"
   inkscape:export-ydpi="96"
   xmlns:inkscape="http://www.inkscape.org/namespaces/inkscape"
   xmlns:sodipodi="http://sodipodi.sourceforge.net/DTD/sodipodi-0.dtd"
   xmlns:xlink="http://www.w3.org/1999/xlink"
   xmlns="http://www.w3.org/2000/svg"
   xmlns:svg="http://www.w3.org/2000/svg"><sodipodi:namedview
     id="namedview819"
     pagecolor="#ffffff"
     bordercolor="#666666"
     borderopacity="1.0"
     inkscape:showpageshadow="2"
     inkscape:pageopacity="1"
     inkscape:pagecheckerboard="false"
     inkscape:deskcolor="#d1d1d1"
     inkscape:document-units="mm"
     showgrid="false"
     inkscape:zoom="0.40158089"
     inkscape:cx="618.80434"
     inkscape:cy="1536.4277"
     inkscape:window-width="1609"
     inkscape:window-height="1176"
     inkscape:window-x="914"
     inkscape:window-y="68"
     inkscape:window-maximized="0"
     inkscape:current-layer="layer2" /><defs
     id="defs814"><color-profile
       name="_40-FHD_LCD-TV"
       xlink:href="file:///Library/ColorSync/Profiles/Displays/40%20FHD_LCD-TV-BCFE1440-F12D-86A9-C737-5ADAA0D5B65C.icc"
       id="color-profile2932" /></defs><g
     inkscape:label="Background"
     inkscape:groupmode="layer"
     id="layer1"
     style="display:inline" /><g
     inkscape:groupmode="layer"
     id="layer2"
     inkscape:label="Logo"
     style="display:inline"
     transform="translate(5.8244307)"><g
       id="germis"
       fill="#000000"
       transform="matrix(0.71422759,0,0,0.71422759,17.276677,87.954755)"><path
         id="g"
         d="m 402.44862,-26.28 v 13.824 c -2.44799,1.152 -4.96799,1.656 -7.704,1.656 -2.808,0 -5.25599,-0.576 -7.416,-1.8 -2.15999,-1.224 -3.888,-2.952 -5.03999,-5.112 -1.22401,-2.16 -1.8,-4.68 -1.8,-7.488 0,-4.32 1.29599,-7.848 3.95999,-10.44 2.592,-2.592 6.12,-3.96 10.44,-3.96 4.752,0 8.784,1.872 12.24,5.616 l 9.072,-8.208 c -2.51999,-2.952 -5.61599,-5.256 -9.36,-6.84 -3.74399,-1.584 -7.992,-2.376 -12.67199,-2.376 -5.40001,0 -10.22401,1.152 -14.47201,3.384 -4.32,2.232 -7.632,5.328 -10.008,9.288 -2.44799,4.032 -3.6,8.496 -3.6,13.536 0,5.04 1.15201,9.576 3.6,13.536 2.376,4.032 5.688,7.128 9.936,9.36 4.17601,2.232 8.928,3.312 14.256,3.312 3.744,0 7.488,-0.504 11.232,-1.656 3.744,-1.08 7.05601,-2.664 9.93601,-4.752 v -20.88 z"
         stroke-width="0"
         stroke="#000000"
         fill="#c10000"
         transform="matrix(1.77,0,0,1.77,-637.97686,96.99216)" /><path
         id="e"
         d="m 464.04687,-50.4 h -39.95999 v 11.016 h 39.95999 z m 0,19.512 h -39.95999 v 10.656 h 39.95999 z m -39.95999,19.872 V 0 h 39.95999 v -11.016 z"
         transform="matrix(1.67,0,0,1.67,-589.22509,94.168)" /><path
         id="r"
         d="m 508.02987,-15.84 c 3.096,-1.512 5.54401,-3.6 7.272,-6.336 1.728,-2.736 2.592,-5.904 2.592,-9.576 0,-3.744 -0.93599,-7.056 -2.736,-9.864 -1.87199,-2.808 -4.464,-4.968 -7.776,-6.48 -3.38399,-1.512 -7.344,-2.304 -11.88,-2.304 h -23.03999 v 11.232 h 22.17599 c 2.88,0 5.112,0.648 6.62401,1.944 1.43999,1.296 2.23199,3.168 2.23199,5.472 0,2.376 -0.792,4.176 -2.23199,5.472 -1.51201,1.296 -3.74401,1.872 -6.62401,1.872 H 472.46188 V 0 h 14.25599 v -13.392 h 7.776 L 503.63787,0 h 15.26401 z"
         transform="matrix(1.67,0,0,1.67,-581.01134,94.168)" /><path
         id="m"
         d="m 584.22275,-31.176 -13.032,23.328 0.072,7.848 h 13.104 z M 525.75875,0 h 13.176 v -6.984 l -13.176,-23.544 z m 46.728,-50.4 -17.28,29.088 -17.712,-29.088 h -11.736 l 13.176,24.408 12.888,21.024 h 6.336 l 12.96,-21.744 12.744,-23.688 z"
         transform="matrix(1.67,0,0,1.67,-573.01711,94.168)" /><path
         id="i"
         d="M 594.38375,-50.4 V 0 h 14.256 v -50.4 z"
         transform="matrix(1.67,0,0,1.67,-566.62086,94.168)" /><path
         id="s"
         d="m 624.6845,-0.504 c 3.816,1.008 7.776,1.512 11.88,1.512 4.752,0 8.856,-0.72 12.24,-2.16 3.312,-1.44 5.832,-3.456 7.56,-5.904 1.656,-2.448 2.52,-5.184 2.52,-8.208 0,-3.456 -0.936,-6.264 -2.808,-8.28 -1.872,-2.016 -4.032,-3.528 -6.552,-4.464 -2.52,-0.936 -5.688,-1.8 -9.504,-2.664 -3.456,-0.72 -5.904,-1.368 -7.416,-2.088 -1.584,-0.648 -2.304,-1.656 -2.304,-3.024 0,-1.296 0.648,-2.376 1.944,-3.24 1.296,-0.864 3.312,-1.296 6.192,-1.296 4.464,0 9.144,1.296 13.968,3.888 l 4.392,-10.584 c -2.448,-1.44 -5.328,-2.52 -8.496,-3.24 -3.24,-0.72 -6.48,-1.152 -9.792,-1.152 -4.896,0 -9,0.72 -12.312,2.16 -3.312,1.44 -5.832,3.456 -7.488,5.904 -1.728,2.448 -2.52,5.256 -2.52,8.28 0,3.528 0.864,6.336 2.736,8.352 1.8,2.088 3.96,3.6 6.552,4.536 2.52,0.936 5.688,1.8 9.504,2.592 3.456,0.792 5.904,1.512 7.488,2.232 1.584,0.72 2.376,1.728 2.376,3.168 0,2.736 -2.736,4.104 -8.208,4.104 -2.88,0 -5.832,-0.432 -8.784,-1.368 -3.024,-0.864 -5.616,-2.088 -7.848,-3.6 l -4.68,10.512 c 2.376,1.728 5.472,3.024 9.36,4.032 z"
         transform="matrix(1.67,0,0,1.67,-558.59191,95.85136)" /><text
         id="subtitle"
         style="font-style:normal;font-weight:normal;font-size:32px;line-height:1;font-family:Montserrat;letter-spacing:15px;text-anchor:middle"
         x="600"
         transform="matrix(0.25,0,0,0.25,126,123)">CLOUD ARCHITECTURE / PLATFORM ENGINEERING / DEVELOPMENT</text><g
         id="contact"
         style="font-style:normal;font-weight:normal;font-size:32px;line-height:1;font-family:Montserrat;letter-spacing:15px;text-anchor:middle"
         transform="matrix(0.35,0,0,0.35,50,92)"
         fill-opacity="0.4"><text
           id="email"
           x="1140"
           transform="matrix(0.6,0,0,0.6,-35,190)">VERBINDINGSWEG 4, 3770 VAL-MEER (RIEMST) - INFO@GERMIS.BE - 0479/707308</text></g></g><g
       id="g2454"
       transform="matrix(0.83297316,0,0,0.83297316,160.29807,262.7523)"><path
         d="m 56.8,3.78 c -2.1,0.84 -5.25,2.38 -6.86,3.36 l -3.08,1.82 8.61,4.97 c 4.76,2.73 8.96,4.97 9.38,4.97 0.42,0 4.62,-2.24 9.38,-4.97 L 82.84,8.89 79.48,6.93 C 70.87,1.82 63.73,0.84 56.8,3.78 Z"
         id="path2428" /><path
         d="m 31.95,17.43 c -0.42,0.35 -4.97,3.01 -10.15,6.02 -5.18,2.94 -10.64,6.51 -12.11,7.98 l -2.66,2.59 12.46,7.28 c 6.86,3.92 12.81,7.21 13.23,7.21 0.84,0 26.74,-14.77 27.23,-15.61 0.28,-0.42 -26.04,-16.1 -27.02,-16.1 -0.21,0 -0.63,0.28 -0.98,0.63 z"
         id="path2430" /><path
         d="m 4.65,38.43 c -0.98,1.61 -1.82,12.46 -1.61,21 l 0.21,9.45 13.65,7.84 13.65,7.91 0.21,-15.89 C 30.9,56.63 30.69,52.71 30.06,52.15 29.15,51.31 5.84,37.8 5.35,37.8 c -0.14,0 -0.42,0.28 -0.7,0.63 z"
         id="path2432" /><path
         d="m 82.84,24.64 c -10.85,6.23 -13.37,7.91 -12.6,8.61 1.4,1.33 25.97,15.26 26.81,15.26 0.35,0 6.3,-3.29 13.16,-7.21 l 12.46,-7.28 -2.66,-2.59 c -1.47,-1.47 -7.35,-5.32 -13.09,-8.61 L 96.42,16.8 c -0.07,0 -6.16,3.57 -13.58,7.84 z"
         id="path2434" /><path
         d="m 111.82,44.8 c -6.51,3.85 -12.11,7.21 -12.46,7.56 -0.28,0.28 -0.49,7.7 -0.42,16.45 l 0.21,15.82 13.65,-7.91 13.65,-7.84 -0.07,-13.65 c -0.07,-12.67 -0.7,-17.5 -2.17,-17.36 -0.35,0 -5.88,3.15 -12.39,6.93 z"
         id="path2436" /><g
         fill="#c10000"
         id="g2444"><path
           d="m 51.62,42.7 c -7.28,4.13 -13.44,7.84 -13.79,8.19 -0.35,0.35 5.39,4.06 13.09,8.54 10.29,5.88 14.07,7.77 14.98,7.28 C 70.94,64.26 92.36,51.38 92.08,51.03 91.87,50.61 78.15,42.63 65.13,35.28 64.92,35.14 58.83,38.5 51.62,42.7 Z"
           id="path2438" /><path
           d="m 35.1,71.26 v 15.96 l 13.51,7.84 c 7.49,4.34 13.79,7.84 14,7.84 0.28,0 0.49,-7.14 0.49,-15.96 V 71.05 L 49.45,63.14 c -7.49,-4.27 -13.79,-7.84 -14,-7.84 -0.21,0 -0.35,7.21 -0.35,15.96 z"
           id="path2440" /><path
           d="M 80.11,63.21 66.6,70.98 v 15.96 c 0,8.75 0.21,15.96 0.49,15.96 0.21,0 6.51,-3.5 14,-7.84 L 94.6,87.22 V 71.26 c 0,-8.75 -0.21,-15.96 -0.49,-15.96 -0.35,0.07 -6.65,3.57 -14,7.91 z"
           id="path2442" /></g><path
         d="m 80.46,99.96 -13.86,8.05 v 14.63 c 0,13.72 0.07,14.56 1.33,14.56 2.45,0 6.16,-1.68 16.38,-7.56 l 10.29,-5.95 v -15.96 c 0,-8.82 -0.07,-16.03 -0.14,-15.96 -0.14,0.07 -6.44,3.71 -14,8.19 z"
         id="path2446" /><path
         d="m 35.1,108.01 v 15.61 l 10.36,6.02 c 10.15,5.88 13.79,7.56 16.31,7.56 1.26,0 1.33,-0.84 1.33,-14.63 V 108.01 L 49.52,100.17 C 42.1,95.9 35.8,92.4 35.52,92.4 c -0.21,0 -0.42,7 -0.42,15.61 z"
         id="path2448" /><path
         d="m 3.25,85.4 c -0.7,1.19 0.35,11.13 1.54,15.05 1.33,4.2 7.07,10.15 12.67,13.16 l 3.64,1.96 V 94.85 L 15.29,91.56 C 12.14,89.67 8.22,87.43 6.61,86.45 4.79,85.33 3.53,84.91 3.25,85.4 Z"
         id="path2450" /><path
         d="m 117.21,89.81 -8.61,4.97 v 20.79 l 3.64,-1.96 c 5.53,-2.94 11.34,-8.96 12.67,-13.16 1.26,-3.92 2.38,-15.82 1.4,-15.68 -0.28,0 -4.41,2.31 -9.1,5.04 z"
         id="path2452" /></g><text
       xml:space="preserve"
       style="font-style:normal;font-variant:normal;font-weight:normal;font-stretch:normal;font-size:10.4249px;line-height:1.25;font-family:'Mukta Mahee';-inkscape-font-specification:'Mukta Mahee, Normal';font-variant-ligatures:normal;font-variant-caps:normal;font-variant-numeric:normal;font-variant-east-asian:normal;fill:#808080;fill-opacity:1;stroke:none;stroke-width:0.26062"
       x="155.03146"
       y="521.1814"
       id="text2747"><tspan
         sodipodi:role="line"
         id="tspan2745"
         style="font-style:normal;font-variant:normal;font-weight:normal;font-stretch:normal;font-size:10.4249px;font-family:'Mukta Mahee';-inkscape-font-specification:'Mukta Mahee, Normal';font-variant-ligatures:normal;font-variant-caps:normal;font-variant-numeric:normal;font-variant-east-asian:normal;fill:#000000;stroke-width:0.26062"
         x="155.03146"
         y="521.1814">Paper tablet is powered off</tspan></text></g></svg>
